<svg width="40" height="52" viewBox="0 0 40 52" fill="none" xmlns="http://www.w3.org/2000/svg">
<g clip-path="url(#clip0)">
<path d="M20.1105 48.7019C20.1105 48.7019 20.1105 47.4926 20.1105 46.5031C20.1105 45.5137 17.0166 42.8752 16.2431 41.6659C15.8011 40.8964 12.3757 31.3319 12.3757 31.3319C12.3757 30.2325 15.0277 28.9133 16.9061 31.3319L19.779 35.8393L21.2155 34.4101V17.9196C21.2155 16.7103 22.21 15.7209 23.4254 15.7209C24.6409 15.7209 25.6354 16.7103 25.6354 17.9196V32.2114V31.112V25.6152H27.8453C28.5083 25.6152 29.6133 26.0549 30.0553 26.7145H32.2652C33.2597 26.7145 34.4752 27.704 34.4752 28.9133H36.6851C37.6796 28.9133 38.8951 29.9027 38.8951 31.112V42.1057C38.8951 44.3044 36.6851 46.1733 36.6851 47.6025C36.6851 49.0317 36.6851 48.7019 36.6851 48.7019" stroke="#040404" stroke-width="2" stroke-miterlimit="10"/>
<path d="M30.0553 26.7146V32.2114" stroke="#040404" stroke-width="2" stroke-miterlimit="10"/>
<path d="M34.4752 28.9133V33.3108" stroke="#040404" stroke-width="2" stroke-miterlimit="10"/>
<path d="M38.895 52V48.7019H17.9006V52" stroke="#040404" stroke-width="2" stroke-miterlimit="10"/>
<path d="M19.0055 26.1649L15.6906 24.5158L7.40334 28.5835C6.85085 28.8034 6.29836 28.3636 6.40886 27.8139L8.06632 19.1289L1.21549 12.4228C0.773502 11.9831 0.994497 11.2135 1.65748 11.2135L11.0497 10.334L15.1381 1.53909C15.3591 0.98941 16.2431 0.98941 16.4641 1.53909L20.5525 10.334L29.8343 11.1036C30.4973 11.1036 30.7183 11.8731 30.2763 12.3129L28.0663 14.5116" stroke="#040404" stroke-width="2" stroke-miterlimit="10" stroke-linejoin="round"/>
</g>
<defs>
<clipPath id="clip0">
<rect width="40" height="52" fill="white"/>
</clipPath>
</defs>
</svg>
