<svg width="23" height="24" viewBox="0 0 23 24" fill="none" xmlns="http://www.w3.org/2000/svg">
<path d="M21.1106 0.606445L15.5711 0.990916C15.4957 0.981728 15.4175 0.977487 15.3352 0.985262L13.137 1.32591C12.8956 1.34924 12.6694 1.45949 12.4979 1.63618L12.0173 2.13161L11.4825 2.68287L8.17961 6.09292C8.14395 6.12967 8.11996 6.17561 8.08979 6.21731L8.07196 6.20388L0.669495 13.8339L9.26776 22.6965L18.191 13.4989L20.9817 10.744L22.1172 1.71109L21.1106 0.606445Z" fill="#F05123"/>
<path d="M16.3825 8.57782C17.5257 8.57782 18.4526 7.62286 18.4526 6.44486C18.4526 5.26685 17.5257 4.31189 16.3825 4.31189C15.2392 4.31189 14.3124 5.26685 14.3124 6.44486C14.3124 7.62286 15.2392 8.57782 16.3825 8.57782Z" fill="white"/>
<path d="M16.3017 15.0114C16.3017 16.0001 15.5243 16.8009 14.5659 16.8009C13.6069 16.8009 12.8302 15.9994 12.8302 15.0114C12.8302 14.0227 13.6076 13.2219 14.5659 13.2219C15.5243 13.2219 16.3017 14.0234 16.3017 15.0114Z" fill="white"/>
<path d="M22.079 20.9571C22.079 21.9458 21.3007 22.7466 20.3411 22.7466C19.3808 22.7466 18.6031 21.9451 18.6031 20.9571C18.6031 19.9683 19.3815 19.1676 20.3411 19.1676C21.3007 19.1676 22.079 19.9691 22.079 20.9571Z" fill="white"/>
<path d="M13.4835 22.5753C13.3539 22.5753 13.2325 22.523 13.1406 22.429C12.9513 22.2339 12.9513 21.9173 13.1406 21.7222L21.0837 13.5367C21.1756 13.442 21.297 13.3904 21.4267 13.3904C21.5563 13.3904 21.6777 13.4427 21.7696 13.5367C21.8615 13.6314 21.9115 13.7565 21.9115 13.8901C21.9115 14.0236 21.8608 14.1487 21.7696 14.2434L13.8264 22.429C13.7352 22.523 13.6131 22.5753 13.4835 22.5753Z" fill="black"/>
<path d="M14.5656 17.369C13.3023 17.369 12.2744 16.3103 12.2744 15.0091C12.2744 13.708 13.3023 12.6493 14.5656 12.6493C15.8289 12.6493 16.8568 13.708 16.8568 15.0091C16.8568 16.3103 15.8289 17.369 14.5656 17.369ZM14.5656 13.6479C13.8375 13.6479 13.2446 14.2586 13.2446 15.0084C13.2446 15.7583 13.8375 16.3689 14.5656 16.3689C15.2936 16.3689 15.8865 15.7583 15.8865 15.0084C15.8858 14.2586 15.2936 13.6479 14.5656 13.6479Z" fill="black"/>
<path d="M20.3425 23.3146C19.0797 23.3146 18.0515 22.2559 18.0515 20.9548C18.0515 19.6537 19.079 18.595 20.3425 18.595C21.6053 18.595 22.6329 19.6537 22.6329 20.9548C22.6329 22.2559 21.6053 23.3146 20.3425 23.3146ZM20.3425 19.5936C19.6148 19.5936 19.0221 20.2042 19.0221 20.9541C19.0221 21.7039 19.6148 22.3146 20.3425 22.3146C21.0703 22.3146 21.663 21.7039 21.663 20.9541C21.6623 20.2042 21.0703 19.5936 20.3425 19.5936Z" fill="black"/>
<path d="M18.5396 13.6467C18.41 13.6467 18.2879 13.5944 18.1967 13.5004C18.1048 13.4057 18.0548 13.2806 18.0548 13.147C18.0548 13.0134 18.1055 12.8884 18.1967 12.7937L20.9007 10.0069C20.9398 9.96667 20.9638 9.91366 20.9693 9.85712L21.6646 2.17408C21.6811 1.86452 21.5631 1.56062 21.341 1.33163C21.1311 1.11537 20.8589 0.996635 20.5736 0.996635C20.5496 0.996635 20.5249 0.997342 20.5009 0.999462L14.2515 1.58536C14.2275 1.58818 14.2097 1.5896 14.1926 1.5896C13.9532 1.5896 13.7475 1.38888 13.7249 1.13304C13.7009 0.858819 13.8977 0.614992 14.1638 0.590256L20.433 0.00294906C20.4666 0.000828817 20.5078 0.00012207 20.5496 0.00012207C21.1099 0.00012207 21.6345 0.222041 22.0274 0.625593C22.445 1.056 22.6659 1.64755 22.6329 2.24899L21.9122 10.2183C21.9012 10.3342 21.8512 10.443 21.7716 10.525L18.8839 13.5011C18.7913 13.5951 18.6692 13.6467 18.5396 13.6467Z" fill="black"/>
<path d="M9.8722 18.8575C9.74258 18.8575 9.62119 18.8052 9.52929 18.7112L4.47477 13.5025C4.28549 13.3074 4.28549 12.9901 4.47477 12.7957C4.56667 12.701 4.68807 12.6494 4.81769 12.6494C4.94731 12.6494 5.0687 12.701 5.1606 12.7957L10.2151 18.0045C10.4044 18.1995 10.4044 18.5161 10.2151 18.7112C10.1232 18.8052 10.0018 18.8575 9.8722 18.8575Z" fill="black"/>
<path d="M10.5912 15.1421C10.4617 15.1421 10.3403 15.0898 10.2485 14.9958L6.63911 11.279C6.54794 11.185 6.49721 11.0599 6.49721 10.9263C6.49721 10.7927 6.54794 10.6669 6.63911 10.5722C6.73098 10.4775 6.85232 10.4259 6.98188 10.4259C7.11145 10.4259 7.23348 10.4782 7.32465 10.5722L10.9333 14.289C11.0245 14.383 11.0752 14.5081 11.0752 14.6417C11.0752 14.7753 11.0245 14.9011 10.9333 14.9958C10.8421 15.0905 10.7208 15.1421 10.5912 15.1421Z" fill="black"/>
<path d="M12.0399 12.1585C11.9104 12.1585 11.7884 12.1069 11.6966 12.0122L8.81121 9.03965C8.62278 8.84459 8.62278 8.52727 8.81121 8.3315C8.90235 8.2375 9.02363 8.18591 9.15382 8.18591C9.28332 8.18591 9.40529 8.23751 9.49779 8.33221L12.3832 11.3047C12.5716 11.4998 12.5723 11.8171 12.3832 12.0129C12.2914 12.1062 12.1694 12.1585 12.0399 12.1585Z" fill="black"/>
<path d="M9.15073 23.3205C9.02109 23.3205 8.899 23.2682 8.80777 23.1742L0.141968 14.2445C-0.0473432 14.0494 -0.0473432 13.7328 0.141968 13.5377L7.48945 5.96636C7.55736 5.89639 7.57725 5.79179 7.5409 5.70133C7.50454 5.61016 7.4188 5.55079 7.32346 5.55009C4.51534 5.52818 2.71757 3.71113 2.19353 2.49553C1.98913 2.02201 2.01999 1.65662 2.28133 1.43965C3.41925 0.495435 4.7362 0.0169678 6.1972 0.0169678C9.96902 0.0169678 13.7683 3.21217 14.8431 4.19172C14.8877 4.232 14.9439 4.25321 15.0002 4.25321C15.0413 4.25321 15.0825 4.2419 15.1195 4.21999C15.5064 3.98676 15.9488 3.86308 16.3988 3.86308C17.0655 3.86308 17.691 4.12882 18.1595 4.61223C19.1376 5.62147 19.1376 7.26253 18.1595 8.27035C17.6862 8.75801 17.0559 9.02657 16.385 9.02657C15.7142 9.02657 15.0832 8.75801 14.6099 8.27035C13.8314 7.4682 13.662 6.20524 14.1984 5.19954C14.2519 5.09848 14.2306 4.97267 14.1455 4.89705C12.8478 3.73799 9.47448 1.04246 6.19308 1.04246C5.09562 1.04246 4.10174 1.34848 3.24023 1.95275C3.13803 2.02483 3.10648 2.16548 3.16821 2.27644C3.60582 3.06234 5.05309 4.54933 7.39411 4.54933C7.70689 4.54933 8.02995 4.52248 8.35301 4.46947C8.37839 4.46523 8.40309 4.46311 8.42915 4.46311H9.15142C9.34827 4.46311 9.52455 4.58396 9.59932 4.77125C9.67477 4.95925 9.63361 5.17268 9.49437 5.31615L1.33888 13.7194C1.24629 13.8148 1.24629 13.9696 1.33888 14.065L8.98337 21.9417C9.02795 21.9876 9.08831 22.013 9.15073 22.013C9.21383 22.013 9.27351 21.9876 9.31809 21.9417L12.4184 18.7472C12.5103 18.6525 12.6317 18.6009 12.7614 18.6009C12.891 18.6009 13.0124 18.6532 13.1043 18.7472C13.2936 18.9422 13.2936 19.2589 13.1043 19.4539L9.49369 23.1742C9.40246 23.2682 9.28037 23.3205 9.15073 23.3205ZM16.385 4.85535C15.9728 4.85535 15.586 5.02003 15.2958 5.31898C14.6956 5.93809 14.6956 6.9445 15.2958 7.5629C15.586 7.86185 15.9728 8.02653 16.385 8.02653C16.7966 8.02653 17.1834 7.86185 17.4743 7.5629C18.0744 6.9445 18.0744 5.93809 17.4743 5.31898C17.1834 5.02003 16.7966 4.85535 16.385 4.85535Z" fill="black"/>
</svg>
