<svg width="60" height="52" viewBox="0 0 60 52" fill="none" xmlns="http://www.w3.org/2000/svg">
<path d="M29.1755 23.7714L49.4715 13.4952L58.7315 31.2L38.4355 41.4762L29.1755 23.7714Z" stroke="#040404" stroke-width="2" stroke-miterlimit="10" stroke-linejoin="round"/>
<path d="M42.7483 16.9619L45.0316 21.2952L38.3086 24.7619L35.8984 20.3048" stroke="#040404" stroke-width="2" stroke-miterlimit="10" stroke-linejoin="round"/>
<path d="M38.943 37.019L41.2263 35.7809" stroke="#040404" stroke-width="2" stroke-miterlimit="10" stroke-linejoin="round"/>
<path d="M42.3679 35.2857L44.6512 34.1714" stroke="#040404" stroke-width="2" stroke-miterlimit="10" stroke-linejoin="round"/>
<path d="M35.3911 42.0952C28.7949 43.2095 26.1311 41.2286 23.2135 39.2476C27.3996 41.1048 30.9514 36.8952 28.6681 33.181C27.2727 30.7048 24.2283 31.4476 21.945 32.9333C19.408 34.4191 16.871 36.5238 13.9535 35.5333C7.73784 33.3048 8.11839 28.3524 1.26849 30.3333C2.41014 26.2476 7.73784 24.6381 10.9091 25.6286C15.8562 27.2381 18.5201 26 18.5201 22.9048C18.5201 20.5524 16.1099 18.2 11.1628 19.1905C11.1628 19.1905 13.0655 14.2381 17.5053 14.2381C19.9154 14.2381 22.1987 16.0952 23.3404 17.0857C24.6089 18.2 27.5264 20.181 29.6829 18.4476C33.4884 15.4762 28.1607 10.5238 24.7357 11.7619C29.6829 8.79048 37.4207 9.0381 44.3975 11.7619" stroke="#040404" stroke-width="2" stroke-miterlimit="10" stroke-linejoin="round"/>
<path d="M36.7865 1.2381H26.6385" stroke="#040404" stroke-width="2" stroke-miterlimit="10" stroke-linejoin="round"/>
<path d="M24.1014 1.2381H21.5645" stroke="#040404" stroke-width="2" stroke-miterlimit="10" stroke-linejoin="round"/>
<path d="M19.0275 1.2381H16.4905" stroke="#040404" stroke-width="2" stroke-miterlimit="10" stroke-linejoin="round"/>
<path d="M17.759 8.66669H11.4165" stroke="#040404" stroke-width="2" stroke-miterlimit="10" stroke-linejoin="round"/>
<path d="M8.8795 8.66669H6.3425" stroke="#040404" stroke-width="2" stroke-miterlimit="10" stroke-linejoin="round"/>
<path d="M49.4714 50.7619H34.2495" stroke="#040404" stroke-width="2" stroke-miterlimit="10" stroke-linejoin="round"/>
<path d="M31.7125 50.7619H29.1755" stroke="#040404" stroke-width="2" stroke-miterlimit="10" stroke-linejoin="round"/>
</svg>
