<svg width="46" height="52" viewBox="0 0 46 52" fill="none" xmlns="http://www.w3.org/2000/svg">
<g clip-path="url(#clip0)">
<path d="M12.8719 4.82408L5.90237 18.8578C5.58843 19.4843 5.52564 20.2988 5.83958 20.9879L17.6438 49.494C18.2089 50.8096 19.6531 51.4361 20.9716 50.8723L31.8968 46.3614L42.822 41.8506C44.1406 41.2867 44.7685 39.8458 44.2034 38.5301L32.3363 10.0241C32.0852 9.33492 31.5201 8.83372 30.8294 8.58311L16.0113 3.57107C14.7556 3.13251 13.437 3.69637 12.8719 4.82408Z" stroke="#09100C" stroke-width="2" stroke-miterlimit="10"/>
<path d="M20.5946 11.3397C19.9667 9.83613 18.2086 9.08432 16.7017 9.71083C15.1947 10.3373 14.4413 12.0916 15.0692 13.5952C15.6971 15.0988 17.4551 15.8506 18.9621 15.2241C20.5318 14.5976 21.2224 12.8434 20.5946 11.3397Z" stroke="#09100C" stroke-width="2" stroke-miterlimit="10"/>
<path d="M21.7247 39.1567L28.9454 21.8024" stroke="#09100C" stroke-width="2" stroke-miterlimit="10" stroke-linecap="round"/>
<path d="M18.8994 30.4482C20.3559 30.4482 21.5366 29.2701 21.5366 27.8169C21.5366 26.3636 20.3559 25.1855 18.8994 25.1855C17.443 25.1855 16.2623 26.3636 16.2623 27.8169C16.2623 29.2701 17.443 30.4482 18.8994 30.4482Z" stroke="#09100C" stroke-width="2" stroke-miterlimit="10"/>
<path d="M34.157 32.1399C34.7221 33.4555 34.0942 35.0218 32.7128 35.523C31.3943 36.0869 29.8246 35.4603 29.3223 34.082C28.7572 32.7664 29.385 31.2001 30.7664 30.6989C32.0849 30.1977 33.5919 30.8242 34.157 32.1399Z" stroke="#09100C" stroke-width="2" stroke-miterlimit="10"/>
<path d="M6.46719 11.465L1.56968 16.665C1.13016 17.1662 0.87901 17.7927 0.941799 18.4818L3.57892 46.7999C3.70449 48.1156 4.83469 49.0553 6.15325 48.93L13.3111 48.2409" stroke="#09100C" stroke-width="2" stroke-miterlimit="10" stroke-linecap="round"/>
<path d="M17.3924 11.0265C14.253 5.82653 6.15328 -1.44094 3.76732 1.69159C2.00924 4.00967 6.27886 7.45545 10.4857 9.64822" stroke="#09100C" stroke-width="2" stroke-miterlimit="10" stroke-linecap="round"/>
</g>
<defs>
<clipPath id="clip0">
<rect width="45.3333" height="52" fill="white"/>
</clipPath>
</defs>
</svg>
