<svg width="48" height="50" viewBox="0 0 48 50" fill="none" xmlns="http://www.w3.org/2000/svg">
<g clip-path="url(#clip0)">
<path d="M11.3252 19.3977H45.7831C46.265 19.3977 46.6265 19.8796 46.506 20.3615L41.024 38.5543H35.3011H22.8313H17.1084L9.09632 12.229C8.97584 11.9278 8.67464 11.6868 8.37343 11.6868H0.903552" stroke="#09100C" stroke-width="2" stroke-miterlimit="10" stroke-linecap="round"/>
<path d="M21.8674 45.7228C21.8674 47.5903 20.3614 49.0963 18.4939 49.0963C16.6265 49.0963 15.1204 47.5903 15.1204 45.7228C15.1204 43.8554 16.6265 42.3493 18.4939 42.3493C20.3614 42.3493 21.8674 43.9156 21.8674 45.7228Z" stroke="#09100C" stroke-width="2" stroke-miterlimit="10"/>
<path d="M42.47 45.7228C42.47 47.5903 40.964 49.0963 39.0966 49.0963C37.2291 49.0963 35.7231 47.5903 35.7231 45.7228C35.7231 43.8554 37.2291 42.3493 39.0966 42.3493C40.964 42.4096 42.47 43.9156 42.47 45.7228Z" stroke="#09100C" stroke-width="2" stroke-miterlimit="10"/>
<path d="M24.9999 43.3736H32.6505" stroke="#09100C" stroke-width="2" stroke-miterlimit="10" stroke-linecap="round"/>
<path d="M13.0123 25.1206H45.0605" stroke="#09100C" stroke-width="2" stroke-miterlimit="10"/>
<path d="M21.3853 7.46994L28.6745 15.0603C28.7347 15.1205 28.8552 15.1205 28.9154 15.0603L36.2046 7.46994C36.3251 7.34946 36.2046 7.16874 36.0841 7.16874H33.1323C33.0118 7.16874 32.9516 7.1085 32.9516 6.98802V1.0844C32.9516 0.96392 32.8913 0.903679 32.7709 0.903679H24.8793C24.7588 0.903679 24.6986 0.96392 24.6986 1.0844V6.92778C24.6986 7.04826 24.6383 7.1085 24.5178 7.1085H21.566C21.3251 7.16874 21.2648 7.34946 21.3853 7.46994Z" stroke="#09100C" stroke-width="2" stroke-miterlimit="10"/>
</g>
<defs>
<clipPath id="clip0">
<rect width="47.4096" height="50" fill="white"/>
</clipPath>
</defs>
</svg>
