<svg width="40" height="46" viewBox="0 0 40 46" fill="none" xmlns="http://www.w3.org/2000/svg">
<g clip-path="url(#clip0)">
<path d="M21.5678 22.517H6.31599C5.83495 22.517 5.44446 22.1154 5.44446 21.6208C5.44446 21.1261 5.83495 20.7245 6.31599 20.7245H21.5678C22.0489 20.7245 22.4394 21.1261 22.4394 21.6208C22.4394 22.1154 22.0489 22.517 21.5678 22.517Z" fill="#09100C"/>
<path d="M16.6667 28.6744H5.33673C2.39389 28.6744 0 26.2126 0 23.1862V15.7019C0 15.2072 0.390492 14.8057 0.871534 14.8057H39.1285C39.6095 14.8057 40 15.2072 40 15.7019V23.1862C40 23.6809 39.6095 24.0825 39.1285 24.0825C38.6474 24.0825 38.2569 23.6809 38.2569 23.1862V16.5982H1.74307V23.1862C1.74307 25.2232 3.35597 26.8818 5.33673 26.8818H16.6667C17.1477 26.8818 17.5382 27.2834 17.5382 27.7781C17.5382 28.2728 17.1477 28.6744 16.6667 28.6744Z" fill="#09100C"/>
<path d="M39.1285 10.6445C38.6474 10.6445 38.2569 10.2429 38.2569 9.74823V5.48811C38.2569 3.45116 36.644 1.79251 34.6633 1.79251H5.33673C3.35597 1.79251 1.74307 3.45116 1.74307 5.48811V8.7414L35.1952 8.72394C35.6763 8.72394 36.0668 9.12551 36.0668 9.62019C36.0668 10.1149 35.6763 10.5164 35.1952 10.5164L0.871534 10.5339C0.390492 10.5339 0 10.1323 0 9.63765V5.48811C0 2.46179 2.39389 0 5.33673 0H34.6633C37.6061 0 40 2.46179 40 5.48811V9.74823C40 10.2429 39.6095 10.6445 39.1285 10.6445Z" fill="#09100C"/>
<path d="M36.5139 42.5372C36.5139 43.4567 35.5858 44.2075 34.437 44.2075H24.0804C22.9372 44.2075 22.0035 43.4567 22.0035 42.5372V34.8492C22.0035 32.7424 24.0408 31.0314 26.5479 31.0314H31.9695C34.4766 31.0314 36.5139 32.7424 36.5139 34.8492V42.5372ZM24.1087 26.0554C24.1087 23.9545 26.2479 22.1037 29.3153 22.1037C32.1223 22.1037 34.403 23.873 34.403 26.0554V29.6812C33.6503 29.396 32.8297 29.2389 31.9638 29.2389H26.5422C25.6764 29.2389 24.8557 29.396 24.1031 29.6812V26.0554H24.1087ZM36.1461 30.6647V26.0554C36.1461 22.8894 33.0787 20.3112 29.3153 20.3112C25.0255 20.3112 22.3657 23.1979 22.3657 26.0554V30.6647C21.0753 31.689 20.2604 33.1847 20.2604 34.8492V42.543C20.2604 44.4519 21.9752 46.0058 24.0804 46.0058H34.437C36.5422 46.0058 38.257 44.4519 38.257 42.543V34.8492C38.257 33.1847 37.4421 31.689 36.1461 30.6647Z" fill="#09100C"/>
<path d="M31.2283 37.6077C31.2283 38.5796 30.4586 39.3711 29.5135 39.3711C28.5684 39.3711 27.7988 38.5796 27.7988 37.6077C27.7988 36.6358 28.5684 35.8443 29.5135 35.8443C30.4586 35.8443 31.2283 36.6358 31.2283 37.6077Z" fill="#09100C"/>
</g>
<defs>
<clipPath id="clip0">
<rect width="40" height="46" fill="white"/>
</clipPath>
</defs>
</svg>
