<svg width="25" height="26" viewBox="0 0 25 26" fill="none" xmlns="http://www.w3.org/2000/svg">
<path d="M11.4954 2.99436L15.2716 0.808594L20.2723 7.89032H17.2377L11.4954 2.99436Z" fill="#F05123"/>
<path d="M2.97702 7.89117L8.50257 0.522339L18.2529 7.89117H2.97702Z" fill="white"/>
<path d="M7.17514 7.87821L9.24221 4.64893L13.4001 7.87821H7.17514Z" fill="#F05123"/>
<path d="M21.4188 8.01733H0.800049V24.3184H21.4188V8.01733Z" fill="#F05123"/>
<path d="M21.1179 14.1652H18.5065L16.9105 15.8091V17.5448L18.635 19.3218H23.7983V14.3564L21.1179 14.1652Z" fill="white"/>
<path d="M14.5279 19.4824C14.5279 20.5489 13.6885 21.414 12.6537 21.414C11.619 21.414 10.7795 20.5489 10.7795 19.4824C10.7795 18.4151 11.619 17.5508 12.6537 17.5508C13.6885 17.5508 14.5279 18.4151 14.5279 19.4824Z" fill="#F05123"/>
<path d="M7.4831 13.8378C7.4831 14.9039 6.6428 15.7673 5.60691 15.7673C4.57028 15.7673 3.73072 14.9031 3.73072 13.8378C3.73072 12.7717 4.57103 11.9083 5.60691 11.9083C6.6428 11.9083 7.4831 12.7717 7.4831 13.8378Z" fill="#F05123"/>
<path d="M14.3487 19.4848C14.3487 20.4506 13.5883 21.2336 12.6504 21.2336C11.7126 21.2336 10.9522 20.4506 10.9522 19.4848C10.9522 18.519 11.7126 17.736 12.6504 17.736C13.5883 17.736 14.3487 18.519 14.3487 19.4848Z" fill="white"/>
<path d="M7.32095 13.8277C7.32095 14.7947 6.56056 15.5786 5.6227 15.5786C4.68483 15.5786 3.92444 14.7947 3.92444 13.8277C3.92444 12.8608 4.68483 12.0768 5.6227 12.0768C6.56056 12.0768 7.32095 12.8608 7.32095 13.8277Z" fill="white"/>
<path d="M2.15456 25.264C0.966564 25.264 -3.05176e-05 24.268 -3.05176e-05 23.0438V9.47437C-3.05176e-05 8.25018 0.966564 7.25414 2.15456 7.25414H2.48964C2.56913 7.25414 2.64343 7.21663 2.69247 7.15232L7.93333 0.20913C8.03363 0.0766817 8.18519 0.000887666 8.34864 0.000887666C8.46306 0.000887666 8.57153 0.0384019 8.66292 0.108837L11.371 2.20198C11.4163 2.23719 11.4706 2.2548 11.5248 2.2548C11.5701 2.2548 11.6162 2.24255 11.6571 2.21729L15.117 0.0782128C15.1995 0.0269179 15.2924 0.00012207 15.3867 0.00012207C15.5628 0.00012207 15.7263 0.0904624 15.8243 0.24205L20.3259 7.20055C20.3623 7.25721 20.4188 7.29702 20.4835 7.31233C21.4604 7.53665 22.17 8.44694 22.17 9.4759V13.4394C22.17 13.5856 22.2851 13.7043 22.427 13.7043H23.9917C24.2815 13.7043 24.517 13.947 24.517 14.2456V19.0818C24.517 19.3804 24.2815 19.6231 23.9917 19.6231H22.427C22.2851 19.6231 22.17 19.7418 22.17 19.888V23.043C22.17 24.2672 21.2034 25.2633 20.0154 25.2633H2.15456V25.264ZM2.15456 8.3367C1.54607 8.3367 1.05052 8.84658 1.05052 9.47437V23.043C1.05052 23.67 1.54533 24.1807 2.15456 24.1807H20.0161C20.6246 24.1807 21.1202 23.67 21.1202 23.043V19.8857C21.1202 19.7395 21.005 19.6208 20.8631 19.6208H19.2984C17.7144 19.6208 16.4261 18.2933 16.4261 16.661C16.4261 15.0288 17.7144 13.7012 19.2984 13.7012H20.8631C21.005 13.7012 21.1202 13.5826 21.1202 13.4363V9.47284C21.1202 8.84582 20.6254 8.33516 20.0161 8.33516H2.15456V8.3367ZM19.2992 14.7853C18.2947 14.7853 17.4782 15.6275 17.4782 16.6618C17.4782 17.6969 18.2954 18.5383 19.2992 18.5383H23.2101C23.352 18.5383 23.4672 18.4196 23.4672 18.2734V15.0494C23.4672 14.9032 23.352 14.7845 23.2101 14.7845H19.2992V14.7853ZM15.1505 1.36212C15.1051 1.36212 15.0598 1.37437 15.0182 1.39963L12.7433 2.80603C12.6705 2.8512 12.6236 2.93159 12.6192 3.01963C12.6147 3.10768 12.6534 3.19189 12.7217 3.24472L17.84 7.20055C17.8846 7.235 17.9388 7.25338 17.9938 7.25338H18.6186C18.713 7.25338 18.7999 7.19979 18.8452 7.11327C18.8898 7.02753 18.8846 6.92264 18.8326 6.84149L15.3644 1.48002C15.3154 1.40422 15.2337 1.36212 15.1505 1.36212ZM9.12875 4.02945C9.23277 4.02945 9.33455 4.06084 9.42222 4.12132L13.9179 7.20974C13.9602 7.23883 14.01 7.25414 14.0605 7.25414H15.3882C15.4989 7.25414 15.597 7.18141 15.6319 7.07346C15.6668 6.96551 15.6304 6.84685 15.5427 6.77794L11.1682 3.39707L8.64806 1.44939C8.60199 1.41418 8.54776 1.39657 8.49426 1.39657C8.41774 1.39657 8.34196 1.43179 8.29143 1.49916L4.26903 6.82771C4.20885 6.90733 4.19845 7.01528 4.2408 7.10638C4.28389 7.19672 4.37305 7.25491 4.47112 7.25491H6.39242C6.4734 7.25491 6.54919 7.21586 6.59748 7.14926L8.70898 4.24765C8.80928 4.10754 8.96159 4.02945 9.12875 4.02945ZM9.31152 5.39987C9.23351 5.39987 9.15624 5.43662 9.10646 5.50552L8.1421 6.83C8.0834 6.91039 8.07449 7.01757 8.11758 7.10715C8.16142 7.19672 8.24983 7.25338 8.34716 7.25338H11.2395C11.3524 7.25338 11.4527 7.17682 11.4854 7.06581C11.5181 6.95403 11.4765 6.83383 11.3822 6.76875L9.45417 5.44427C9.41034 5.41442 9.3613 5.39987 9.31152 5.39987Z" fill="black"/>
<path d="M19.2823 17.2337C19.5899 17.2337 19.8393 16.9766 19.8393 16.6595C19.8393 16.3424 19.5899 16.0853 19.2823 16.0853C18.9747 16.0853 18.7253 16.3424 18.7253 16.6595C18.7253 16.9766 18.9747 17.2337 19.2823 17.2337Z" fill="black"/>
<path d="M5.99806 21.2411C5.87772 21.2411 5.76406 21.2005 5.67046 21.1224C5.44462 20.9355 5.40822 20.5939 5.58874 20.3603L11.846 12.2964C11.947 12.1677 12.0978 12.0934 12.2598 12.0934C12.3794 12.0934 12.4915 12.134 12.5851 12.2113C12.811 12.3982 12.8481 12.7406 12.6676 12.9735L6.40962 21.0381C6.30859 21.1668 6.15853 21.2411 5.99806 21.2411Z" fill="black"/>
<path d="M5.60954 16.3977C4.24163 16.3977 3.12858 15.2509 3.12858 13.8414C3.12858 12.4319 4.24163 11.285 5.60954 11.285C6.97744 11.285 8.09049 12.4319 8.09049 13.8414C8.09049 15.2509 6.97744 16.3977 5.60954 16.3977ZM5.60954 12.3676C4.82119 12.3676 4.17922 13.0291 4.17922 13.8414C4.17922 14.6537 4.82119 15.3152 5.60954 15.3152C6.39788 15.3152 7.03985 14.6545 7.03985 13.8414C7.03985 13.0291 6.39788 12.3676 5.60954 12.3676Z" fill="black"/>
<path d="M12.65 22.0402C11.2821 22.0402 10.169 20.8933 10.169 19.4838C10.169 18.0744 11.2821 16.9275 12.65 16.9275C14.018 16.9275 15.1311 18.0744 15.1311 19.4838C15.1318 20.8933 14.0187 22.0402 12.65 22.0402ZM12.65 18.0101C11.8617 18.0101 11.2197 18.6715 11.2197 19.4838C11.2197 20.2961 11.8609 20.9576 12.65 20.9576C13.4384 20.9576 14.0804 20.2961 14.0804 19.4838C14.0804 18.6715 13.4392 18.0101 12.65 18.0101Z" fill="black"/>
</svg>
