<svg width="20" height="24" viewBox="0 0 20 24" fill="none" xmlns="http://www.w3.org/2000/svg">
<path d="M18.9836 0.707642H0.682114V22.571H18.9836V0.707642Z" fill="#F05123"/>
<path d="M16.3611 13.3398H13.6176V19.8731H16.3611V13.3398Z" fill="white"/>
<path d="M16.2403 3.62146H3.38124V6.17962H16.2403V3.62146Z" fill="white"/>
<path d="M6.12578 8.65747H3.38124V10.8214H6.12578V8.65747Z" fill="white"/>
<path d="M11.245 8.65747H8.50153V10.8214H11.245V8.65747Z" fill="white"/>
<path d="M6.12578 13.1882H3.38124V15.3521H6.12578V13.1882Z" fill="white"/>
<path d="M11.245 13.1882H8.50153V15.3521H11.245V13.1882Z" fill="white"/>
<path d="M6.12578 17.7021H3.38124V19.8667H6.12578V17.7021Z" fill="white"/>
<path d="M11.245 17.7021H8.50153V19.8667H11.245V17.7021Z" fill="white"/>
<path d="M16.3611 8.65747H13.6176V10.8214H16.3611V8.65747Z" fill="white"/>
<path d="M1.20705 23.3206C0.541792 23.3206 -1.52588e-05 22.7624 -1.52588e-05 22.0769V1.24388C-1.52588e-05 0.558401 0.541792 0.00012207 1.20705 0.00012207H18.5367C19.2019 0.00012207 19.7437 0.558401 19.7437 1.24388V22.0769C19.7437 22.7631 19.2019 23.3206 18.5367 23.3206H1.20705ZM1.20705 1.00008C1.07606 1.00008 0.969752 1.10961 0.969752 1.24459V22.0776C0.969752 22.2126 1.07606 22.3221 1.20705 22.3221H18.5346C18.6656 22.3221 18.7719 22.2126 18.7719 22.0776L18.774 1.24459C18.774 1.17958 18.7493 1.11739 18.7047 1.07216C18.6601 1.02623 18.5998 1.00078 18.5373 1.00078H1.20705V1.00008Z" fill="black"/>
<path d="M3.37351 6.95638C3.10601 6.95638 2.88858 6.73236 2.88858 6.45676V3.48094C2.88858 3.20534 3.10601 2.98132 3.37351 2.98132H16.3718C16.6393 2.98132 16.8568 3.20534 16.8568 3.48094V6.45676C16.8568 6.73236 16.6393 6.95638 16.3718 6.95638H3.37351ZM4.09575 3.98056C3.96474 3.98056 3.85843 4.0901 3.85843 4.22507V5.71334C3.85843 5.84831 3.96474 5.95785 4.09575 5.95785H15.6503C15.7813 5.95785 15.8876 5.84831 15.8876 5.71334V4.22507C15.8876 4.0901 15.7813 3.98056 15.6503 3.98056H4.09575Z" fill="black"/>
<path d="M3.37334 11.4175C3.10594 11.4175 2.88858 11.1935 2.88858 10.9179V8.68552C2.88858 8.40992 3.10594 8.18591 3.37334 8.18591H6.26067C6.52808 8.18591 6.74543 8.40992 6.74543 8.68552V10.9179C6.74543 11.1935 6.52808 11.4175 6.26067 11.4175H3.37334ZM4.09535 9.18584C3.96439 9.18584 3.85811 9.29537 3.85811 9.43034V10.1745C3.85811 10.3094 3.96439 10.419 4.09535 10.419H5.53935C5.67031 10.419 5.77659 10.3094 5.77659 10.1745V9.43034C5.77659 9.29537 5.67031 9.18584 5.53935 9.18584H4.09535Z" fill="black"/>
<path d="M8.42639 11.4175C8.15891 11.4175 7.9415 11.1935 7.9415 10.9179V8.68552C7.9415 8.40992 8.15891 8.18591 8.42639 8.18591H11.3145C11.5819 8.18591 11.7993 8.40992 11.7993 8.68552V10.9179C11.7993 11.1935 11.5819 11.4175 11.3145 11.4175H8.42639ZM9.14789 9.18584C9.01689 9.18584 8.91059 9.29537 8.91059 9.43034V10.1745C8.91059 10.3094 9.01689 10.419 9.14789 10.419H10.5923C10.7233 10.419 10.8296 10.3094 10.8296 10.1745V9.43034C10.8296 9.29537 10.7233 9.18584 10.5923 9.18584H9.14789Z" fill="black"/>
<path d="M13.4793 11.4175C13.2118 11.4175 12.9944 11.1935 12.9944 10.9179V8.68552C12.9944 8.40992 13.2118 8.18591 13.4793 8.18591H16.3674C16.6349 8.18591 16.8523 8.40992 16.8523 8.68552V10.9179C16.8523 11.1935 16.6349 11.4175 16.3674 11.4175H13.4793ZM14.2015 9.18584C14.0705 9.18584 13.9642 9.29537 13.9642 9.43034V10.1745C13.9642 10.3094 14.0705 10.419 14.2015 10.419H15.6459C15.7769 10.419 15.8832 10.3094 15.8832 10.1745V9.43034C15.8832 9.29537 15.7769 9.18584 15.6459 9.18584H14.2015Z" fill="black"/>
<path d="M3.37334 15.8809C3.10594 15.8809 2.88858 15.6569 2.88858 15.3813V13.1489C2.88858 12.8733 3.10594 12.6493 3.37334 12.6493H6.26067C6.52808 12.6493 6.74543 12.8733 6.74543 13.1489V15.3813C6.74543 15.6569 6.52808 15.8809 6.26067 15.8809H3.37334ZM4.09535 13.6485C3.96439 13.6485 3.85811 13.7581 3.85811 13.893V14.6372C3.85811 14.7722 3.96439 14.8817 4.09535 14.8817H5.53935C5.67031 14.8817 5.77659 14.7722 5.77659 14.6372V13.893C5.77659 13.7581 5.67031 13.6485 5.53935 13.6485H4.09535Z" fill="black"/>
<path d="M8.42639 15.8809C8.15891 15.8809 7.9415 15.6569 7.9415 15.3813V13.1489C7.9415 12.8733 8.15891 12.6493 8.42639 12.6493H11.3145C11.5819 12.6493 11.7993 12.8733 11.7993 13.1489V15.3813C11.7993 15.6569 11.5819 15.8809 11.3145 15.8809H8.42639ZM9.14789 13.6485C9.01689 13.6485 8.91059 13.7581 8.91059 13.893V14.6372C8.91059 14.7722 9.01689 14.8817 9.14789 14.8817H10.5923C10.7233 14.8817 10.8296 14.7722 10.8296 14.6372V13.893C10.8296 13.7581 10.7233 13.6485 10.5923 13.6485H9.14789Z" fill="black"/>
<path d="M3.37334 20.3444C3.10594 20.3444 2.88858 20.1204 2.88858 19.8448V17.6124C2.88858 17.3368 3.10594 17.1128 3.37334 17.1128H6.26067C6.52808 17.1128 6.74543 17.3368 6.74543 17.6124V19.8448C6.74543 20.1204 6.52808 20.3444 6.26067 20.3444H3.37334ZM4.09535 18.112C3.96439 18.112 3.85811 18.2216 3.85811 18.3565V19.1007C3.85811 19.2357 3.96439 19.3452 4.09535 19.3452H5.53935C5.67031 19.3452 5.77659 19.2357 5.77659 19.1007V18.3565C5.77659 18.2216 5.67031 18.112 5.53935 18.112H4.09535Z" fill="black"/>
<path d="M8.42639 20.3444C8.15891 20.3444 7.9415 20.1204 7.9415 19.8448V17.6124C7.9415 17.3368 8.15891 17.1128 8.42639 17.1128H11.3145C11.5819 17.1128 11.7993 17.3368 11.7993 17.6124V19.8448C11.7993 20.1204 11.5819 20.3444 11.3145 20.3444H8.42639ZM9.14789 18.112C9.01689 18.112 8.91059 18.2216 8.91059 18.3565V19.1007C8.91059 19.2357 9.01689 19.3452 9.14789 19.3452H10.5923C10.7233 19.3452 10.8296 19.2357 10.8296 19.1007V18.3565C10.8296 18.2216 10.7233 18.112 10.5923 18.112H9.14789Z" fill="black"/>
<path d="M13.4793 20.3451C13.2118 20.3451 12.9944 20.1211 12.9944 19.8455V13.1489C12.9944 12.8733 13.2118 12.6493 13.4793 12.6493H16.3674C16.6349 12.6493 16.8523 12.8733 16.8523 13.1489V19.8455C16.8523 20.1211 16.6349 20.3451 16.3674 20.3451H13.4793ZM14.2015 13.6485C14.0705 13.6485 13.9642 13.7581 13.9642 13.8931V19.1013C13.9642 19.2363 14.0705 19.3459 14.2015 19.3459H15.6459C15.7769 19.3459 15.8832 19.2363 15.8832 19.1013V13.8931C15.8832 13.7581 15.7769 13.6485 15.6459 13.6485H14.2015Z" fill="black"/>
</svg>
