<svg width="25" height="24" viewBox="0 0 25 24" fill="none" xmlns="http://www.w3.org/2000/svg">
<path d="M0.147644 7.54493L2.48833 9.77735L6.53765 5.91531L9.65337 8.88622V0.472412H1.27093L4.60524 3.6525L0.147644 7.54493Z" fill="#FDC52D"/>
<path d="M11.8491 9.02912L14.9674 12.0061L20.299 6.91605L23.7579 10.2189V0.77478H14.375L17.2326 3.5029L11.8491 9.02912Z" fill="#FDC52D"/>
<path d="M14.1903 20.9452L16.5306 23.1786L20.7422 19.1592L23.8351 22.1117V14.0808H15.9053L18.6953 16.7434L14.1903 20.9452Z" fill="#FDC52D"/>
<path d="M2.4735 16.6272C1.1097 16.6272 0 15.5686 0 14.2676C0 12.9666 1.1097 11.908 2.4735 11.908C3.83729 11.908 4.947 12.9666 4.947 14.2676C4.94774 15.5686 3.83803 16.6272 2.4735 16.6272ZM2.4735 12.9072C1.68752 12.9072 1.04748 13.5178 1.04748 14.2676C1.04748 15.0174 1.68678 15.628 2.4735 15.628C3.25948 15.628 3.89952 15.0174 3.89952 14.2676C3.89952 13.5178 3.26022 12.9072 2.4735 12.9072Z" fill="black"/>
<path d="M9.49291 23.314C8.12908 23.314 7.01935 22.2554 7.01935 20.9544C7.01935 19.6533 8.12908 18.5947 9.49291 18.5947C10.8567 18.5947 11.9665 19.6533 11.9665 20.9544C11.9665 22.2554 10.8567 23.314 9.49291 23.314ZM9.49291 19.594C8.70691 19.594 8.06685 20.2046 8.06685 20.9544C8.06685 21.7041 8.70691 22.3147 9.49291 22.3147C10.2789 22.3147 10.919 21.7041 10.919 20.9544C10.919 20.2039 10.2789 19.594 9.49291 19.594Z" fill="black"/>
<path d="M15.3417 12.1599C15.2017 12.1599 15.0705 12.1076 14.9712 12.0137C14.7667 11.8186 14.7667 11.5013 14.9712 11.307L20.0419 6.47112C20.1411 6.37643 20.2723 6.32484 20.4124 6.32484C20.5524 6.32484 20.6836 6.37713 20.7828 6.47112L22.9621 8.54949C23.011 8.59613 23.0762 8.62086 23.1429 8.62086C23.1763 8.62086 23.2089 8.6145 23.2407 8.60249C23.3363 8.56433 23.3986 8.47528 23.3986 8.37705V1.24377C23.3986 1.10879 23.2837 0.999254 23.1422 0.999254H15.6648C15.5611 0.999254 15.4677 1.05862 15.4284 1.14978C15.3891 1.24094 15.4106 1.34624 15.484 1.4162L17.6633 3.49456C17.867 3.68961 17.867 4.0062 17.6633 4.20125L12.5919 9.03781C12.4926 9.1325 12.3614 9.18409 12.2214 9.18409C12.0813 9.18409 11.9502 9.13179 11.8509 9.03781C11.6464 8.84276 11.6464 8.52546 11.8509 8.33112L16.3702 4.02104C16.4703 3.92564 16.4703 3.77088 16.3702 3.67547L13.4114 0.853676C13.261 0.710219 13.2165 0.496093 13.2973 0.308822C13.3788 0.12155 13.5685 0 13.7819 0H23.9239C24.2129 0 24.4478 0.224019 24.4478 0.499627V10.172C24.4478 10.3756 24.3211 10.5565 24.1247 10.6335C24.0595 10.6596 23.9928 10.6724 23.9239 10.6724C23.7846 10.6724 23.6535 10.6201 23.5534 10.5247L20.5946 7.70288C20.545 7.65482 20.479 7.6315 20.4138 7.6315C20.3486 7.6315 20.2827 7.65553 20.233 7.70288L15.7122 12.0137C15.6137 12.1084 15.4818 12.1599 15.3417 12.1599Z" fill="black"/>
<path d="M16.8995 23.3233C16.7595 23.3233 16.6284 23.2717 16.5291 23.177C16.3246 22.9818 16.3246 22.6651 16.5291 22.47L20.4292 18.7484C20.5285 18.6537 20.6596 18.602 20.7996 18.602C20.9397 18.602 21.0708 18.6544 21.1701 18.7484L22.9586 20.4551C23.0075 20.5017 23.0727 20.5265 23.1394 20.5265C23.1728 20.5265 23.2054 20.5201 23.2372 20.5081C23.3328 20.4706 23.395 20.3815 23.395 20.2825V14.6358C23.395 14.5008 23.2802 14.3912 23.1387 14.3912H17.2211C17.1174 14.3912 17.024 14.4506 16.9848 14.5418C16.9455 14.633 16.967 14.7384 17.0403 14.8084L18.8289 16.515C19.0333 16.7101 19.0333 17.0269 18.8289 17.222L14.9288 20.9436C14.8295 21.0383 14.6983 21.0899 14.5583 21.0899C14.4183 21.0899 14.2871 21.0383 14.1879 20.9436C13.9834 20.7485 13.9834 20.4317 14.1879 20.2366L17.5367 17.041C17.6367 16.9456 17.6367 16.7907 17.5367 16.6953L14.968 14.2442C14.8176 14.1007 14.7732 13.8864 14.8539 13.6991C14.9354 13.511 15.1251 13.3901 15.3385 13.3901H23.9188C24.2078 13.3901 24.4427 13.6143 24.4427 13.89V22.079C24.4427 22.2819 24.316 22.4636 24.1196 22.5407C24.0544 22.5668 23.9877 22.5795 23.9188 22.5795C23.7796 22.5795 23.6484 22.5272 23.5484 22.4318L20.9797 19.9807C20.9315 19.9347 20.8663 19.9093 20.7989 19.9093C20.7307 19.9093 20.6655 19.9347 20.6181 19.9807L17.2693 23.1762C17.1715 23.2717 17.0396 23.3233 16.8995 23.3233Z" fill="black"/>
<path d="M2.86252 9.92817C2.72254 9.92817 2.59145 9.87588 2.49221 9.78189C2.28853 9.58685 2.28853 9.27025 2.49221 9.07521L6.39086 5.35453C6.49011 5.25983 6.6212 5.20825 6.76118 5.20825C6.90115 5.20825 7.03299 5.26054 7.13149 5.35453L8.91936 7.06046C8.96824 7.1071 9.03342 7.13183 9.10007 7.13183C9.1334 7.13183 9.16599 7.12547 9.19784 7.11346C9.29338 7.0753 9.35559 6.98626 9.35559 6.88803V1.24376C9.35559 1.10878 9.24079 0.999248 9.09933 0.999248H3.18543C3.08175 0.999248 2.98843 1.05861 2.94917 1.14977C2.90918 1.24093 2.9314 1.34623 3.00472 1.41619L4.79259 3.12212C4.997 3.31716 4.997 3.63376 4.79259 3.8288L0.893936 7.54878C0.794692 7.64347 0.663601 7.69506 0.523623 7.69506C0.383644 7.69506 0.251813 7.64277 0.15331 7.54878C-0.0511032 7.35373 -0.0511032 7.03643 0.15331 6.84209L3.50094 3.64789C3.60092 3.55249 3.60092 3.39773 3.50094 3.30232L0.932448 0.852965C0.782101 0.709509 0.737664 0.495384 0.818392 0.308113C0.899861 0.120843 1.0902 0 1.30276 0H9.87995C10.1688 0 10.4036 0.224018 10.4036 0.499624V8.68371C10.4036 8.88723 10.2769 9.06814 10.0807 9.14517C10.0155 9.17132 9.94883 9.18474 9.88069 9.18474C9.74368 9.18474 9.60814 9.13104 9.5089 9.03705L6.94189 6.58769C6.89375 6.54175 6.82857 6.51631 6.76118 6.51631C6.69304 6.51631 6.6286 6.54175 6.58046 6.58769L3.23283 9.78189C3.13359 9.87588 3.0025 9.92817 2.86252 9.92817Z" fill="black"/>
<path d="M2.08507 21.8355C1.94515 21.8355 1.8141 21.7839 1.71489 21.6892C1.5113 21.4941 1.5113 21.1775 1.71489 20.9825L9.73816 13.3242C9.81146 13.2542 9.83293 13.1496 9.79369 13.0577C9.75371 12.9666 9.66043 12.9072 9.55752 12.9072H7.54152C7.25278 12.9072 7.01809 12.6832 7.01809 12.4076C7.01809 12.132 7.25278 11.908 7.54152 11.908H11.4388C11.5061 11.908 11.5735 11.9207 11.6387 11.9468C11.766 11.997 11.8697 12.0952 11.9222 12.2168C11.9489 12.279 11.9629 12.3433 11.9629 12.4076V16.1276C11.9629 16.4032 11.7282 16.6272 11.4395 16.6272C11.1508 16.6272 10.9161 16.4032 10.9161 16.1276V14.2033C10.9161 14.1043 10.8539 14.0153 10.7584 13.9778C10.7265 13.9651 10.6932 13.9595 10.6607 13.9595C10.594 13.9595 10.5289 13.9842 10.48 14.0308L2.45525 21.6892C2.35604 21.7839 2.225 21.8355 2.08507 21.8355Z" fill="black"/>
</svg>
